<?xml version="1.0" standalone="no"?><!DOCTYPE svg PUBLIC "-//W3C//DTD SVG 1.1//EN" "http://www.w3.org/Graphics/SVG/1.1/DTD/svg11.dtd"><svg t="1591340753045" class="icon" viewBox="0 0 1024 1024" version="1.1" xmlns="http://www.w3.org/2000/svg" p-id="6349" xmlns:xlink="http://www.w3.org/1999/xlink" width="128" height="128"><defs><style type="text/css"></style></defs><path d="M402.26 959.98H258.73c-30.97 0.01-56.08-25.08-56.09-56.04 0-11.05 3.25-21.86 9.37-31.06l204.84-307.26c10.51-17.77 33.44-23.64 51.2-13.13 17.77 10.51 23.65 33.44 13.13 51.2-0.7 1.18-1.46 2.33-2.29 3.42L291.99 885.6h100.55l339.78-373.8-339.78-373.79h-68.03l155.87 280.72c10.7 17.85 4.9 40.99-12.95 51.69-17.85 10.7-40.99 4.9-51.69-12.95-0.27-0.45-0.53-0.9-0.78-1.36L243.4 147.36c-15.07-27.05-5.36-61.2 21.69-76.26a56.007 56.007 0 0 1 27.27-7.09h109.52a56.056 56.056 0 0 1 41.49 18.32l368.19 405.19c13.07 14.28 13.07 36.18 0 50.47L443.38 943.17a56.04 56.04 0 0 1-41.12 16.81z" fill="#333333" p-id="6350"></path></svg>