<?xml version="1.0" standalone="no"?><!DOCTYPE svg PUBLIC "-//W3C//DTD SVG 1.1//EN" "http://www.w3.org/Graphics/SVG/1.1/DTD/svg11.dtd"><svg t="1591340737125" class="icon" viewBox="0 0 1024 1024" version="1.1" xmlns="http://www.w3.org/2000/svg" p-id="6075" xmlns:xlink="http://www.w3.org/1999/xlink" width="128" height="128"><defs><style type="text/css"></style></defs><path d="M766.08 960H622.72a56.046 56.046 0 0 1-41.44-18.29L213.55 537.39c-13.05-14.26-13.05-36.14 0-50.4l367.73-404.7A56.37 56.37 0 0 1 622.72 64h109.39c30.93 0.01 55.99 25.08 55.99 56.02 0 9.53-2.44 18.9-7.08 27.23L609.65 455.62c-10.68 17.83-33.8 23.62-51.62 12.93-17.3-10.37-23.35-32.55-13.71-50.27L700 137.92h-69.44L291.2 511.25l339.36 373.33h100.43L544.32 606.45c-12.39-16.48-9.07-39.89 7.41-52.27 16.48-12.4 39.89-9.08 52.27 7.41 0.82 1.09 1.59 2.23 2.29 3.42l204.58 306.88c17.11 25.76 10.11 60.52-15.65 77.63a56.006 56.006 0 0 1-31.01 9.36l1.87 1.12z" fill="#333333" p-id="6076"></path></svg>