<?xml version="1.0" standalone="no"?><!DOCTYPE svg PUBLIC "-//W3C//DTD SVG 1.1//EN" "http://www.w3.org/Graphics/SVG/1.1/DTD/svg11.dtd"><svg t="1591340667758" class="icon" viewBox="0 0 1024 1024" version="1.1" xmlns="http://www.w3.org/2000/svg" p-id="4148" xmlns:xlink="http://www.w3.org/1999/xlink" width="128" height="128"><defs><style type="text/css"></style></defs><path d="M582.83 125.77c78.2 0 138.52 17.89 183.23 55.86 42.43 35.75 63.66 83.8 63.66 145.25 0 44.68-11.16 82.66-33.5 113.95-22.34 29.05-52.52 51.39-92.73 65.91 52.5 10.05 92.73 31.27 119.52 63.68 26.82 32.39 40.23 75.95 40.23 129.59 0 80.43-27.93 138.52-82.66 176.5-46.93 31.3-112.84 46.93-197.75 46.93h-364.2V125.77h364.2zM340.4 464.29h210.02c55.86 0 96.09-10.07 120.66-29.05 24.59-20.11 36.86-51.39 36.86-93.84 0-40.23-12.27-69.27-36.86-87.16-24.57-18.98-64.8-27.91-118.41-27.91H340.4v237.96z m0 358.62h225.68c51.39 0 91.59-8.93 120.64-24.57 35.75-21.23 54.75-54.75 54.75-100.57 0-46.91-14.52-81.55-42.45-102.77-27.93-21.23-71.5-31.27-129.59-31.27H340.4v259.18z" fill="#333333" p-id="4149"></path></svg>