<?xml version="1.0" standalone="no"?><!DOCTYPE svg PUBLIC "-//W3C//DTD SVG 1.1//EN" "http://www.w3.org/Graphics/SVG/1.1/DTD/svg11.dtd"><svg t="1591340765717" class="icon" viewBox="0 0 1490 1024" version="1.1" xmlns="http://www.w3.org/2000/svg" p-id="6760" xmlns:xlink="http://www.w3.org/1999/xlink" width="186.25" height="128"><defs><style type="text/css"></style></defs><path d="M640.697838 168.000103c26.514579 0 48.004721-21.483574 48.004721-47.998153s-21.483574-48.004721-48.004721-48.004721L544.701533 71.997229c-26.514579 0-48.004721 21.490142-48.004721 48.004721l0 784.009236c0 26.501443 21.483574 47.991585 48.004721 47.991585L640.697838 952.002771c26.514579 0 48.004721-21.483574 48.004721-47.991585 0-26.514579-21.483574-48.004721-48.004721-48.004721l-47.998153 0L592.699686 168.000103 640.697838 168.000103z" p-id="6761"></path><path d="M848.70297 856.006465c-26.508011 0-48.004721 21.483574-48.004721 48.004721 0 26.501443 21.490142 47.991585 48.004721 47.991585l95.996306 0c26.514579 0 48.004721-21.483574 48.004721-47.991585L992.703996 120.00195c0-26.514579-21.483574-48.004721-48.004721-48.004721L848.70297 71.997229c-26.508011 0-48.004721 21.490142-48.004721 48.004721s21.490142 47.998153 48.004721 47.998153l47.998153 0 0 688.006363L848.70297 856.006465z" p-id="6762"></path></svg>