<?xml version="1.0" standalone="no"?><!DOCTYPE svg PUBLIC "-//W3C//DTD SVG 1.1//EN" "http://www.w3.org/Graphics/SVG/1.1/DTD/svg11.dtd"><svg t="1591340596053" class="icon" viewBox="0 0 1024 1024" version="1.1" xmlns="http://www.w3.org/2000/svg" p-id="3326" xmlns:xlink="http://www.w3.org/1999/xlink" width="128" height="128"><defs><style type="text/css"></style></defs><path d="M874.026667 149.973333c199.936 199.936 199.936 524.117333 0 724.053334-199.936 199.936-524.117333 199.936-724.053334 0-199.936-199.936-199.936-524.117333 0-724.053334 199.936-199.936 524.117333-199.936 724.053334 0z" fill="#404040" p-id="3327"></path><path d="M211.370667 812.629333c-165.973333-165.973333-165.973333-435.242667 0-601.258666a423.253333 423.253333 0 0 1 257.237333-122.24V934.826667a423.253333 423.253333 0 0 1-257.237333-122.24z" fill="#F5F5F5" p-id="3328"></path><path d="M555.392 934.869333V89.173333a423.253333 423.253333 0 0 1 257.237333 122.24c165.973333 165.973333 165.973333 435.242667 0 601.258667a423.253333 423.253333 0 0 1-257.237333 122.24z" fill="#404040" p-id="3329"></path></svg>