<?xml version="1.0" standalone="no"?><!DOCTYPE svg PUBLIC "-//W3C//DTD SVG 1.1//EN" "http://www.w3.org/Graphics/SVG/1.1/DTD/svg11.dtd"><svg t="1591340741733" class="icon" viewBox="0 0 1024 1024" version="1.1" xmlns="http://www.w3.org/2000/svg" p-id="6212" xmlns:xlink="http://www.w3.org/1999/xlink" width="128" height="128"><defs><style type="text/css"></style></defs><path d="M153.6 929.71c-23.56 0.14-42.78-18.85-42.91-42.42a42.627 42.627 0 0 1 12.62-30.54l238.51-238.51H123.31c-23.57 0-42.67-19.1-42.67-42.67s19.1-42.67 42.67-42.67h341.33c23.56-0.14 42.78 18.85 42.91 42.42a42.627 42.627 0 0 1-12.62 30.54L183.89 916.91a42.684 42.684 0 0 1-30.29 12.8z m353.71-12.38v-128c0-23.56-19.1-42.67-42.67-42.67s-42.67 19.1-42.67 42.67v128c0 23.56 19.1 42.67 42.67 42.67 23.56 0 42.67-19.1 42.67-42.67z m0-42.66v-128c0-23.56-19.1-42.67-42.67-42.67s-42.67 19.1-42.67 42.67v128c0 23.56 19.1 42.67 42.67 42.67 23.56-0.01 42.67-19.11 42.67-42.67zM943.36 448c0-23.56-19.1-42.67-42.67-42.67H662.18l228.69-228.7c15.32-17.91 13.22-44.84-4.69-60.16-15.97-13.66-39.51-13.66-55.47 0L529.06 418.14c-16.73 16.59-16.84 43.6-0.24 60.34a42.634 42.634 0 0 0 30.54 12.61h341.33c23.57 0 42.67-19.1 42.67-42.67V448zM602.02 234.67v-128c0-23.56-19.1-42.67-42.67-42.67s-42.67 19.1-42.67 42.67v128c0 23.56 19.1 42.67 42.67 42.67 23.57-0.01 42.67-19.11 42.67-42.67z" fill="#333333" p-id="6213"></path></svg>