<?xml version="1.0" standalone="no"?><!DOCTYPE svg PUBLIC "-//W3C//DTD SVG 1.1//EN" "http://www.w3.org/Graphics/SVG/1.1/DTD/svg11.dtd"><svg t="1591340803053" class="icon" viewBox="0 0 1024 1024" version="1.1" xmlns="http://www.w3.org/2000/svg" p-id="7724" xmlns:xlink="http://www.w3.org/1999/xlink" width="128" height="128"><defs><style type="text/css"></style></defs><path d="M914.944 636.416h-86.016v-133.12h-274.432V435.2h77.824c38.912 0 70.656-31.744 70.656-70.656v-162.816c0-38.912-31.744-70.656-70.656-70.656h-223.744c-38.912 0-70.656 31.744-70.656 70.656v162.816c0 38.912 31.744 70.656 70.656 70.656h81.408V503.296h-277.504v133.12h-79.872c-38.912 0-70.656 31.744-70.656 70.656V870.4c0 38.912 31.744 70.656 70.656 70.656h223.744c38.912 0 70.656-31.744 70.656-70.656V707.072c0-38.912-31.744-70.656-70.656-70.656H271.36V562.176h498.688v74.24H691.2c-38.912 0-70.656 31.744-70.656 70.656V870.4c0 38.912 31.744 70.656 70.656 70.656h223.744c38.912 0 70.656-31.744 70.656-70.656V707.072c0-38.912-31.744-70.656-70.656-70.656zM356.352 695.296c6.656 0 11.776 5.12 11.776 11.776V870.4c0 6.656-5.12 11.776-11.776 11.776h-223.744c-6.656 0-11.776-5.12-11.776-11.776V707.072c0-6.656 5.12-11.776 11.776-11.776h223.744z m52.736-318.976c-6.656 0-11.776-5.12-11.776-11.776v-162.816c0-6.656 5.12-11.776 11.776-11.776h223.744c6.656 0 11.776 5.12 11.776 11.776v162.816c0 6.656-5.12 11.776-11.776 11.776h-223.744zM926.72 870.4c0 6.656-5.12 11.776-11.776 11.776H691.2c-6.656 0-11.776-5.12-11.776-11.776V707.072c0-6.656 5.12-11.776 11.776-11.776h223.744c6.656 0 11.776 5.12 11.776 11.776V870.4z" fill="#040000" p-id="7725"></path></svg>