<?xml version="1.0" standalone="no"?><!DOCTYPE svg PUBLIC "-//W3C//DTD SVG 1.1//EN" "http://www.w3.org/Graphics/SVG/1.1/DTD/svg11.dtd"><svg t="1591340635677" class="icon" viewBox="0 0 1024 1024" version="1.1" xmlns="http://www.w3.org/2000/svg" p-id="3462" xmlns:xlink="http://www.w3.org/1999/xlink" width="128" height="128"><defs><style type="text/css"></style></defs><path d="M909 959H780a30 30 0 0 1 0-60h99a20 20 0 0 0 20-20v-99a30 30 0 0 1 60 0v129a50 50 0 0 1-50 50z m20-685a30 30 0 0 1-30-30v-99a20 20 0 0 0-20-20h-99a30 30 0 0 1 0-60h129a50 50 0 0 1 50 50v129a30 30 0 0 1-30 30z m-157 28v420a50 50 0 0 1-50 50H302a50 50 0 0 1-50-50V302a50 50 0 0 1 50-50h420a50 50 0 0 1 50 50z m-60 30a20 20 0 0 0-20-20H332a20 20 0 0 0-20 20v360a20 20 0 0 0 20 20h360a20 20 0 0 0 20-20V332zM244 125h-99a20 20 0 0 0-20 20v99a30 30 0 0 1-60 0V115a50 50 0 0 1 50-50h129a30 30 0 0 1 0 60zM95 750a30 30 0 0 1 30 30v99a20 20 0 0 0 20 20h99a30 30 0 0 1 0 60H115a50 50 0 0 1-50-50V780a30 30 0 0 1 30-30z" fill="#333333" p-id="3463"></path></svg>