<?xml version="1.0" standalone="no"?><!DOCTYPE svg PUBLIC "-//W3C//DTD SVG 1.1//EN" "http://www.w3.org/Graphics/SVG/1.1/DTD/svg11.dtd"><svg t="1591340641018" class="icon" viewBox="0 0 1024 1024" version="1.1" xmlns="http://www.w3.org/2000/svg" p-id="3599" xmlns:xlink="http://www.w3.org/1999/xlink" width="128" height="128"><defs><style type="text/css"></style></defs><path d="M449.024 93.090909v372.363636H93.090909V93.090909H0v837.818182h93.090909v-372.363636h355.933091v372.363636h93.090909V93.090909z" fill="#333333" p-id="3600"></path><path d="M1010.874182 533.783273h-84.945455a85.224727 85.224727 0 0 0-92.392727-73.774546A94.813091 94.813091 0 0 0 748.637091 512a224.256 224.256 0 0 0-30.580364 122.926545v6.702546h3.723637a133.911273 133.911273 0 0 1 55.854545-48.453818 157.742545 157.742545 0 0 1 71.540364-14.894546 162.909091 162.909091 0 0 1 125.207272 50.082909 181.527273 181.527273 0 0 1 46.917819 128.884364 175.290182 175.290182 0 0 1-54.365091 131.770182 186.181818 186.181818 0 0 1-133.399273 52.130909 174.126545 174.126545 0 0 1-149.736727-70.749091 313.669818 313.669818 0 0 1-50.781091-190.836364 367.709091 367.709091 0 0 1 54.365091-210.850909 167.889455 167.889455 0 0 1 146.757818-80.477091q156.532364 0 176.593454 145.314909m-256.279272 145.268364a113.012364 113.012364 0 0 0-27.554909 81.221818 108.264727 108.264727 0 0 0 29.044363 79.732364 100.445091 100.445091 0 0 0 74.472728 29.044364 97.28 97.28 0 0 0 75.403636-30.999273 113.524364 113.524364 0 0 0 29.090909-80.430546 111.290182 111.290182 0 0 0-27.601455-78.242909 101.003636 101.003636 0 0 0-76.753454-29.789091 96.116364 96.116364 0 0 0-75.962182 29.789091" fill="#333333" p-id="3601"></path></svg>