<?xml version="1.0" standalone="no"?><!DOCTYPE svg PUBLIC "-//W3C//DTD SVG 1.1//EN" "http://www.w3.org/Graphics/SVG/1.1/DTD/svg11.dtd"><svg t="1591340808071" class="icon" viewBox="0 0 1024 1024" version="1.1" xmlns="http://www.w3.org/2000/svg" p-id="7861" xmlns:xlink="http://www.w3.org/1999/xlink" width="128" height="128"><defs><style type="text/css"></style></defs><path d="M955.733333 136.533333H68.266667c-37.546667 0-68.266667 30.72-68.266667 68.266667v614.4c0 37.546667 30.72 68.266667 68.266667 68.266667h887.466666c37.546667 0 68.266667-30.72 68.266667-68.266667V204.8c0-37.546667-30.72-68.266667-68.266667-68.266667z m-154.146133 171.485867a51.2 51.2 0 1 1 0 102.4 51.2 51.2 0 0 1 0-102.4z m48.520533 442.282667H174.1312c-32.392533 0-50.193067-37.6832-29.610667-62.702934l186.504534-226.781866a38.3488 38.3488 0 0 1 59.2384 0L556.373333 662.818133a38.3488 38.3488 0 0 0 59.2384 0l92.2624-112.1792a38.3488 38.3488 0 0 1 59.2384 0l112.64 136.977067c20.548267 25.002667 2.7648 62.685867-29.6448 62.685867z" fill="#040000" p-id="7862"></path></svg>