<?xml version="1.0" standalone="no"?><!DOCTYPE svg PUBLIC "-//W3C//DTD SVG 1.1//EN" "http://www.w3.org/Graphics/SVG/1.1/DTD/svg11.dtd"><svg t="1592892746246" class="icon" viewBox="0 0 1024 1024" version="1.1" xmlns="http://www.w3.org/2000/svg" p-id="2639" xmlns:xlink="http://www.w3.org/1999/xlink" width="128" height="128"><defs><style type="text/css"></style></defs><path d="M944.03 754.5l-118.2 118.21c-21.76 21.76-57.04 21.76-78.81 0L628.82 754.5c-21.76-21.76-21.76-57.04 0-78.8 21.76-21.76 57.04-21.76 78.8 0l12.49 12.49V347.42L530.92 632.41c-27.11 35.2-44.1 55.71-79.94 55.71-43.1 0-55.6-25.8-77.72-55.71L195.12 347.42h-4.06v439.54c0 43.85-24.28 72.08-63.72 72.08-41.7 0-63.55-23.82-63.55-72.08V199.92c0-46.3 25.59-63.76 59.99-63.76h29.29c29.13 1.54 47.02 18.38 97.78 86.27l200.13 300.86 206.61-305.26c42.26-59.7 65.92-84.48 117.79-81.86h20.83c30.45 0 55.23 35.5 55.23 71.53v481.8l13.79-13.79c21.76-21.76 57.04-21.76 78.8 0 21.77 21.75 21.77 57.03 0 78.79z" p-id="2640"></path></svg>