<?xml version="1.0" standalone="no"?><!DOCTYPE svg PUBLIC "-//W3C//DTD SVG 1.1//EN" "http://www.w3.org/Graphics/SVG/1.1/DTD/svg11.dtd"><svg t="1591340819060" class="icon" viewBox="0 0 1024 1024" version="1.1" xmlns="http://www.w3.org/2000/svg" p-id="8273" xmlns:xlink="http://www.w3.org/1999/xlink" width="128" height="128"><defs><style type="text/css"></style></defs><path d="M304.576 672.32h49.024a13.664 13.664 0 0 0 13.536-11.552l6.528-41.184a13.664 13.664 0 0 1 13.568-11.584h35.04c6.784 0 12.544 4.896 13.568 11.552l6.496 41.12a13.6 13.6 0 0 0 13.536 11.552h50.56c8.736 0 15.36-8.128 13.376-16.672l-66.304-296.992a13.664 13.664 0 0 0-13.376-10.688H372.8a13.824 13.824 0 0 0-13.408 10.592L291.2 655.488a13.728 13.728 0 0 0 13.376 16.832z m80.128-138.944l5.088-33.888c2.304-15.68 24.928-15.488 27.168 0.16l4.704 33.856a13.696 13.696 0 0 1-13.536 15.584h-9.76a13.76 13.76 0 0 1-13.664-15.712z m169.984 138.944h56.32c3.2 0 5.696-2.56 5.696-5.696 0-5.056 5.888-7.456 9.632-4a69.952 69.952 0 0 0 18.176 12.192 63.232 63.232 0 0 0 24.864 5.856c17.248 0 32.128-6.976 44.8-20.736s19.008-30.016 19.008-48.48v-113.44c0-24-5.632-42.592-17.024-55.808-11.392-13.12-25.216-19.712-41.408-19.712-5.248 0-10.72 0.768-16.576 2.208a76.8 76.8 0 0 0-17.504 7.04c-3.328 1.952-6.72 4.128-10.24 6.592a87.968 87.968 0 0 0-10.176 8.064v-97.28a5.632 5.632 0 0 0-5.632-5.632H554.88c-3.2 0-5.664 2.56-5.664 5.632v317.44c-0.288 3.264 2.272 5.76 5.472 5.76z m65.408-164.192c0-7.456 1.984-13.44 5.856-18.016a23.68 23.68 0 0 1 13.088-8.288h2.4c0.672 0 1.312 0.064 2.016 0.256a10.112 10.112 0 0 0 2.368 0.256c3.872 1.28 7.552 4.032 11.008 8.288 3.424 4.224 5.12 10.016 5.12 17.568v86.208c0 9.504-1.792 16.704-5.44 21.952-3.552 5.248-7.424 8.384-11.616 9.312h-2.432a10.464 10.464 0 0 1-2.208-0.32 11.136 11.136 0 0 0-2.208-0.256c-4.576-1.632-8.64-5.12-12.448-10.464-3.744-5.408-5.568-12.032-5.568-20.224v-86.336l0.064 0.064z" fill="" p-id="8274"></path><path d="M872 128H152a23.936 23.936 0 0 0-24 24v720c0 13.312 10.688 24 24 24h720c13.312 0 24-10.688 24-24V152a23.936 23.936 0 0 0-24-24zM864 842.016a21.92 21.92 0 0 1-21.984 21.984H182.016A21.92 21.92 0 0 1 160 842.016V182.016C160 169.824 169.824 160 182.016 160h660c12.16 0 21.984 9.824 21.984 22.016v660z" fill="" p-id="8275"></path></svg>