<?xml version="1.0" standalone="no"?><!DOCTYPE svg PUBLIC "-//W3C//DTD SVG 1.1//EN" "http://www.w3.org/Graphics/SVG/1.1/DTD/svg11.dtd"><svg t="1591340692903" class="icon" viewBox="0 0 1024 1024" version="1.1" xmlns="http://www.w3.org/2000/svg" p-id="4835" xmlns:xlink="http://www.w3.org/1999/xlink" width="128" height="128"><defs><style type="text/css"></style></defs><path d="M139.58 132.62v199.3h-32.25V171.99c-11.84 10.89-26.73 18.98-44.91 24.27V163.9c8.82-2.25 18.18-6.16 28.11-11.73 9.91-6.14 18.18-12.57 24.8-19.55h24.25zM171.01 434.24c12.14 11.16 18.2 25.41 18.2 43.27 0 17.3-6.64 32.93-19.3 47.16-7.73 8.39-21.5 18.98-40.8 32.11-20.11 13.39-32.23 25.11-36.64 35.16h97v28.75H52.24c0-20.39 6.34-37.95 19.57-53.02 7.18-8.39 22.32-20.66 45.2-36.57 12.66-8.93 21.48-16.48 27-22.34 8.55-9.77 12.95-20.36 12.95-31.55 0-10.89-3.02-18.98-8.55-24.27-5.8-5.3-14.34-7.82-25.64-7.82-12.11 0-21.2 4.18-27.27 12.57-6.07 7.82-9.36 19.82-9.93 35.43H53.35c0.27-22.32 6.61-40.18 19.3-53.86 12.93-14.5 30.02-21.77 51.25-21.77 19 0 34.73 5.59 47.11 16.75zM171.04 729.06c11.86 9.77 17.91 23.16 17.91 40.48 0 21.77-11.02 36.27-32.8 43.55 11.59 3.61 20.68 8.93 26.75 16.18 6.61 7.52 9.91 17.3 9.91 29.02 0 18.43-6.34 33.5-19.02 45.23-13.23 12-30.57 18.14-52.07 18.14-20.39 0-36.93-5.3-49.34-15.91-13.77-11.73-21.48-29.02-23.14-51.36h32.8c0.55 12.84 4.41 22.89 12.11 29.86 6.91 6.43 16 9.77 27.3 9.77 12.39 0 22.32-3.64 29.48-10.61 6.34-6.41 9.64-14.23 9.64-23.7 0-11.45-3.57-19.82-10.18-25.14-6.61-5.57-16.27-8.09-28.93-8.09h-13.8V801.9h13.8c11.57 0 20.39-2.5 26.45-7.52 5.77-5.02 8.82-12.57 8.82-22.34s-2.75-17.02-8-22.05c-5.8-5.02-14.32-7.55-25.61-7.55-11.59 0-20.41 2.8-26.75 8.66-6.61 5.86-10.45 14.8-11.57 26.8H53.1c1.64-20.09 8.82-35.73 22.05-46.89 12.39-11.16 28.39-16.48 47.66-16.48 19.84 0 36.11 4.75 48.23 14.53z" p-id="4836"></path><path d="M281.3 180.62h708.8v93.09H281.3zM281.3 478.1h708.8v93.09H281.3zM281.3 775.58h708.8v93.09H281.3z" p-id="4837"></path></svg>