<?xml version="1.0" standalone="no"?><!DOCTYPE svg PUBLIC "-//W3C//DTD SVG 1.1//EN" "http://www.w3.org/Graphics/SVG/1.1/DTD/svg11.dtd"><svg t="1591340728315" class="icon" viewBox="0 0 1024 1024" version="1.1" xmlns="http://www.w3.org/2000/svg" p-id="5796" xmlns:xlink="http://www.w3.org/1999/xlink" width="128" height="128"><defs><style type="text/css"></style></defs><path d="M511.866 696.295c-16.568 0-30-13.432-30-30V357.706c0-16.568 13.432-30 30-30 16.569 0 30 13.432 30 30v308.589c-0.001 16.568-13.431 30-30 30zM317.316 836.225h-80.61C173.457 836.225 122 784.768 122 721.519V302.481c0-63.249 51.457-114.706 114.706-114.706h80.61c63.249 0 114.706 51.457 114.706 114.706v419.038c0 63.249-51.457 114.706-114.706 114.706z m-80.61-588.45c-30.165 0-54.706 24.541-54.706 54.706v419.038c0 30.165 24.541 54.706 54.706 54.706h80.61c30.165 0 54.706-24.541 54.706-54.706V302.481c0-30.165-24.541-54.706-54.706-54.706h-80.61zM787.294 836.225h-80.61c-63.249 0-114.706-51.457-114.706-114.706V302.481c0-63.249 51.457-114.706 114.706-114.706h80.61c63.249 0 114.706 51.457 114.706 114.706v419.038c0 63.249-51.457 114.706-114.706 114.706z m-80.61-588.45c-30.165 0-54.706 24.541-54.706 54.706v419.038c0 30.165 24.541 54.706 54.706 54.706h80.61c30.165 0 54.706-24.541 54.706-54.706V302.481c0-30.165-24.541-54.706-54.706-54.706h-80.61z" p-id="5797"></path></svg>