<?xml version="1.0" standalone="no"?><!DOCTYPE svg PUBLIC "-//W3C//DTD SVG 1.1//EN" "http://www.w3.org/Graphics/SVG/1.1/DTD/svg11.dtd"><svg t="1592902586860" class="icon" viewBox="0 0 1424 1024" version="1.1" xmlns="http://www.w3.org/2000/svg" p-id="5420" width="178" height="128" xmlns:xlink="http://www.w3.org/1999/xlink"><defs><style type="text/css"></style></defs><path d="M426.666667 426.666667l170.666666 170.666666c46.933333 42.666667 123.733333 42.666667 170.666667 0l170.666667-170.666666s93.866667-81.066667 0-85.333334h-128V42.666667c0-25.6-17.066667-42.666667-42.666667-42.666667h-170.666667c-25.6 0-42.666667 17.066667-42.666666 42.666667v298.666666h-128c-98.133333 0 0 85.333333 0 85.333334z" p-id="5421"></path><path d="M1194.666667 597.333333h-128l128 170.666667h-298.666667c0 46.933333-38.4 85.333333-85.333333 85.333333h-256c-46.933333 0-85.333333-38.4-85.333334-85.333333H170.666667l128-170.666667H170.666667l-170.666667 170.666667v85.333333c0 93.866667 76.8 170.666667 170.666667 170.666667h1024c93.866667 0 170.666667-76.8 170.666666-170.666667v-85.333333l-170.666666-170.666667z" p-id="5422"></path></svg>