<?xml version="1.0" standalone="no"?><!DOCTYPE svg PUBLIC "-//W3C//DTD SVG 1.1//EN" "http://www.w3.org/Graphics/SVG/1.1/DTD/svg11.dtd"><svg t="1592881330289" class="icon" viewBox="0 0 1185 1024" version="1.1" xmlns="http://www.w3.org/2000/svg" p-id="5566" xmlns:xlink="http://www.w3.org/1999/xlink" width="148.125" height="128"><defs><style type="text/css"></style></defs><path d="M1048.683789 727.578947H1158.736842v139.210106a139.587368 139.587368 0 0 1-139.210105 139.264h-139.264v-110.053053h139.264a28.618105 28.618105 0 0 0 29.157052-28.564211V727.578947zM1019.526737 9.000421A139.587368 139.587368 0 0 1 1158.736842 148.210526v139.210106h-110.053053V148.210526a28.672 28.672 0 0 0-29.157052-29.210947h-139.264V9.000421h139.264zM137.000421 866.789053c0 16.599579 12.611368 29.210947 29.157053 29.210947h139.264v110.053053H166.157474A139.587368 139.587368 0 0 1 26.947368 866.789053V727.578947h110.053053v139.210106z m0-718.578527v139.210106H26.947368V148.210526A139.587368 139.587368 0 0 1 166.157474 9.000421h139.264v109.999158H166.157474a28.672 28.672 0 0 0-29.157053 29.210947z" p-id="5567"></path><path d="M954.152421 506.88s-151.228632 201.566316-337.81221 201.566316c-186.637474 0-337.92-201.566316-337.92-201.566316s151.282526-201.458526 337.92-201.458526c186.583579 0 337.812211 201.458526 337.81221 201.458526z m-337.81221 109.729684a114.310737 114.310737 0 1 0 0-228.675368 114.310737 114.310737 0 0 0 0 228.675368z" p-id="5568"></path></svg>