<?xml version="1.0" standalone="no"?><!DOCTYPE svg PUBLIC "-//W3C//DTD SVG 1.1//EN" "http://www.w3.org/Graphics/SVG/1.1/DTD/svg11.dtd"><svg t="1591340656610" class="icon" viewBox="0 0 1024 1024" version="1.1" xmlns="http://www.w3.org/2000/svg" p-id="3874" xmlns:xlink="http://www.w3.org/1999/xlink" width="128" height="128"><defs><style type="text/css"></style></defs><path d="M950.611038 630.316709l-104.939027-71.912843c0-13.474896 4.567016-26.970258 4.567016-44.943608s0-31.468712-4.567016-44.943608l95.807043-76.41232c9.131985-8.975419 9.131985-17.972327 4.565992-26.947745l-91.239004-157.301606c-4.567016-4.498454-13.701047-8.996908-27.377534-4.498454l-114.049522 44.943608c-22.808472-17.972327-50.186006-31.468712-77.562517-44.943608L617.573989 86.498026c4.564969-13.473873-9.110495-22.471804-18.243503-22.471804L416.850431 64.026222c-9.133008 0-22.810518 8.996908-22.810518 17.97335L375.797433 203.354478c-27.376511 8.975419-50.186006 26.970258-77.562517 44.943608l-109.48353-44.943608c-13.677511-4.498454-22.810518 0-31.942503 8.975419l-91.239004 157.302629c-4.544503 4.498454 0 17.994839 9.133008 26.970258l95.80602 71.913866c0 13.473873-4.567016 26.970258-4.567016 44.943608s0 31.468712 4.567016 44.943608l-95.80602 76.41232c-9.133008 8.975419-9.133008 17.972327-4.567016 26.948769l91.240027 157.302629c4.565992 4.498454 13.699 8.996908 27.375487 4.498454l114.050546-44.942585c22.810518 17.972327 50.186006 31.468712 77.561493 44.942585l18.244526 116.857475c0 8.997931 9.110495 17.972327 22.810518 17.972327L603.897501 958.39584c9.109472 0 22.808472-8.975419 22.808472-17.972327l18.244526-116.857475c27.375487-13.473873 54.751998-26.969235 77.562517-44.942585l114.049522 44.942585c9.109472 4.498454 22.809495 0 27.352975-8.975419l91.240027-157.302629C959.721533 648.291083 959.721533 634.816187 950.611038 630.316709zM508.090459 670.762887c-86.673012 0-159.669536-71.913866-159.669536-157.302629s72.996524-157.301606 159.669536-157.301606c86.673012 0 159.668513 71.913866 159.668513 157.301606S594.76347 670.762887 508.090459 670.762887z" fill="#333303" p-id="3875"></path></svg>