<?xml version="1.0" standalone="no"?><!DOCTYPE svg PUBLIC "-//W3C//DTD SVG 1.1//EN" "http://www.w3.org/Graphics/SVG/1.1/DTD/svg11.dtd"><svg t="1594178516552" class="icon" viewBox="0 0 1024 1024" version="1.1" xmlns="http://www.w3.org/2000/svg" p-id="3342" xmlns:xlink="http://www.w3.org/1999/xlink" width="128" height="128"><defs><style type="text/css"></style></defs><path d="M983.671889 315.286815c-25.822948-60.13875-62.774629-114.13153-109.827906-160.480379-47.014744-46.311521-101.76132-82.670762-162.720095-108.067442-63.092524-26.286545-130.087691-39.614052-199.123888-39.614052-102.593386 0-201.587575 29.821923-286.281305 86.239856-47.469912 31.622123-88.820344 70.437825-122.768881 114.852814V80.523767c0-19.950319-16.174112-36.124432-36.124432-36.124432s-36.124432 16.174112-36.124432 36.124432v248.968379c0 19.950319 16.174112 36.124432 36.124432 36.124432 0.248054 0 0.493701-0.013246 0.740551-0.019267 1.895329 0.307058 3.823169 0.481659 5.776297 0.481659h207.680562c19.950319 0 36.124432-16.174112 36.124432-36.124431s-16.174112-36.124432-36.124432-36.124432H132.10223c78.127513-131.866217 221.758253-214.457506 379.89777-214.457506 242.480431 0 439.751137 194.074897 439.751137 432.626195S754.479227 944.627399 512 944.627399 72.248863 750.551297 72.248863 512c0-19.950319-16.174112-36.124432-36.124431-36.124432s-36.124432 16.174112-36.124432 36.124432c0 68.210152 13.568337 134.393723 40.326907 196.713185 25.822948 60.137546 62.774629 114.13153 109.827906 160.479175 47.014744 46.311521 101.762524 82.670762 162.720094 108.067442 63.093728 26.287749 130.088895 39.615256 199.125093 39.615256 69.037401 0 136.031364-13.327507 199.125093-39.615256 60.958774-25.39668 115.705351-61.75592 162.720094-108.067442 47.053276-46.347646 84.004958-100.34163 109.827906-160.479175 26.759775-62.319461 40.326907-128.503033 40.326907-196.713185s-13.568337-134.393723-40.328111-196.713185z" fill="#040000" p-id="3343"></path><path d="M505.217036 169.587349c-19.950319 0-36.124432 16.174112-36.124432 36.124432v306.63983a36.12684 36.12684 0 0 0 10.77351 25.736249l152.794305 150.507629a36.004017 36.004017 0 0 0 25.348513 10.388182c9.335757-0.001204 18.669106-3.597993 25.738658-10.77351 14.000626-14.21376 13.827228-37.085342-0.385327-51.085967L541.340263 497.22872V205.711781c0-19.950319-16.171704-36.124432-36.123227-36.124432z" fill="#040000" p-id="3344"></path></svg>