<?xml version="1.0" standalone="no"?><!DOCTYPE svg PUBLIC "-//W3C//DTD SVG 1.1//EN" "http://www.w3.org/Graphics/SVG/1.1/DTD/svg11.dtd"><svg t="1591340761041" class="icon" viewBox="0 0 1024 1024" version="1.1" xmlns="http://www.w3.org/2000/svg" p-id="6623" xmlns:xlink="http://www.w3.org/1999/xlink" width="128" height="128"><defs><style type="text/css"></style></defs><path d="M955.85 581.76l-207.6 276.93c-6.88 9.17-19.89 11.03-29.06 4.16a20.971 20.971 0 0 1-4.15-4.16l-207.6-276.93c-6.88-9.17-5.02-22.18 4.15-29.06 3.59-2.7 7.97-4.16 12.46-4.16h145.32c11.47 0 20.76-9.3 20.76-20.76v-53.56c-0.44-129.79-106.01-234.64-235.8-234.2-1.12 0-2.24 0.01-3.36 0.03h-22.42c-124.56 0-224.2 79.71-286.48 186.84-10.89 20.18-36.08 27.7-56.26 16.82s-27.71-36.08-16.82-56.26c70.44-141.77 215.37-231.14 373.67-230.43h14.95c175.19 0 317.21 142.01 317.21 317.2v53.56c0 11.46 9.29 20.76 20.76 20.76h143.66c11.46 0 20.76 9.3 20.76 20.76 0 4.49-1.46 8.86-4.15 12.46z" fill="#333333" p-id="6624"></path></svg>